<?xml version="1.0" encoding="utf-8"?>
<!-- Generator: Adobe Illustrator 25.3.1, SVG Export Plug-In . SVG Version: 6.00 Build 0)  -->
<svg version="1.1" id="Layer_1" xmlns="http://www.w3.org/2000/svg" xmlns:xlink="http://www.w3.org/1999/xlink" x="0px" y="0px"
	 viewBox="0 0 700 233.97" style="enable-background:new 0 0 700 233.97;" xml:space="preserve">
<style type="text/css">
	.st0{fill:#FEFEFE;}
	.st1{fill:#818181;}
	.st2{fill:#808080;}
	.st3{fill:#8B8B8B;}
	.st4{fill:#858585;}
	.st5{fill:#848484;}
	.st6{fill:#999999;}
	.st7{fill:#909090;}
	.st8{fill:#9E9E9E;}
	.st9{fill:#ABABAB;}
	.st10{fill:#989898;}
	.st11{fill:#8F8F8F;}
	.st12{fill:#969696;}
	.st13{fill:#ADADAD;}
	.st14{fill:#919191;}
	.st15{fill:#9D9D9D;}
	.st16{fill:#BBBBBB;}
	.st17{fill:#A2A2A2;}
	.st18{fill:#898989;}
	.st19{fill:#B3B3B3;}
	.st20{fill:#787878;}
	.st21{fill:#CECECE;}
	.st22{fill:#C8C8C8;}
</style>
<g>
	<path class="st0" d="M200.99,215.61c-60.67,0-121.33-0.02-182,0.07c-2.43,0-2.92-0.48-2.91-2.9c0.09-65.45,0.09-130.9,0-196.35
		c0-2.43,0.48-2.9,2.91-2.9c220.39,0.07,440.77,0.07,661.16,0c2.43,0,2.92,0.47,2.91,2.9c-0.09,65.45-0.09,130.9,0,196.35
		c0,2.43-0.48,2.9-2.91,2.9c-159.01-0.07-318.02-0.07-477.03-0.07c0.38-1.59-0.13-3.19,0.29-4.85c2.93-11.61,4.09-23.53,6.21-35.28
		c1.12-6.19,1.19-12.59,3.56-18.54c2.16-5.43,4.35-10.86,6.51-16.29c2.1-5.3,4.17-10.59,4.09-16.45c-0.03-1.81-0.83-2.54-2.39-2.84
		c-2.45-0.47-14.15,7.11-14.69,9.59c-0.84,3.88-2.3,7.55-4.05,11.08c-4.9,9.89-7.44,20.42-8.77,31.3
		c-0.91,7.49-2.19,14.91-3.39,22.36c-0.72,4.47-2.5,8.75-2.33,13.37c0.06,1.72,0.38,2.59,2.4,3.14
		C194.08,213.13,197.8,213.61,200.99,215.61z M58.1,93.69c-0.09,0.03-0.2,0.04-0.27,0.09c-0.05,0.03-0.05,0.13-0.07,0.2
		c0.11-0.1,0.22-0.2,0.33-0.31c0.24-0.24,0.48-0.47,0.71-0.71c4.45-2.05,6.86-6.44,10.68-9.2c0.09-0.04,0.2-0.07,0.27-0.14
		c0.04-0.04,0.03-0.14,0.04-0.22c-0.11,0.11-0.22,0.22-0.33,0.34c-5.39,0.96-8.21,4.88-10.65,9.23
		C58.57,93.21,58.34,93.45,58.1,93.69z M45.27,103.57c-0.61-0.03-1.13,0.13-1.38,0.76c-0.31,0.08-0.62,0.16-0.94,0.24
		c0.06,0.09,0.12,0.18,0.18,0.27c0.25-0.18,0.49-0.36,0.74-0.54c0.59-0.01,1.16-0.05,1.46-0.68c0.23-0.24,0.46-0.48,0.69-0.72
		c1.47-0.23,2.82-0.67,3.54-2.14c0.09-0.04,0.19-0.06,0.26-0.12c0.04-0.04,0.03-0.13,0.04-0.2c-0.1,0.11-0.2,0.22-0.29,0.33
		c-1.57,0.07-3.11,0.17-3.57,2.11C45.76,103.12,45.51,103.34,45.27,103.57z M267.84,54.71c-0.58,0.31-0.78,0.79-0.59,1.41
		c0.03,0.08,0.18,0.13,0.28,0.19c0.09-0.54,0.18-1.09,0.28-1.63c0.56-0.3,0.75-0.76,0.55-1.36c-0.03-0.08-0.18-0.12-0.27-0.18
		C268,53.67,267.92,54.19,267.84,54.71z M266.39,58.24c-1.96,0.36-1.35,1.69-0.9,2.95C265.8,60.2,266.1,59.22,266.39,58.24
		c0.09-0.04,0.2-0.07,0.27-0.13c0.04-0.04,0.03-0.14,0.04-0.21C266.6,58.01,266.5,58.12,266.39,58.24z M124.93,27.06
		c-2.4-0.19-4.68,0.28-6.87,1.28c2.3-0.31,4.89,0.89,6.84-1.31c0.27-0.16,0.96,0.35,0.79-0.5
		C125.44,26.71,125.18,26.89,124.93,27.06z M186.07,158.2c-3.96,1.7-5.37,4.35-4.48,8.61c1.69-2.84,3.78-5.37,4.46-8.64
		c0.09-0.04,0.19-0.06,0.26-0.12c0.04-0.03,0.03-0.13,0.04-0.2C186.26,157.97,186.17,158.09,186.07,158.2z M87.97,151.11
		c-5.67,3.72-5.81,10.31-8.21,15.73c3.45-4.88,6.75-9.83,8.18-15.76c0.18-0.24,0.36-0.49,0.54-0.73c-0.09-0.06-0.18-0.12-0.27-0.18
		C88.13,150.49,88.05,150.8,87.97,151.11z M172.65,128.47c0.67-0.05,1.27-0.2,1.54-0.91c1.31-2.08,3.12-3.84,3.92-6.24
		c0.95-1.89,1.9-3.78,2.85-5.67c4.3-11.07,7.39-22.53,10.91-33.85c8.07-14.93,17.72-28.92,26.45-44.02
		c-3.46,0.6-6.45,0.92-9.33,1.67c-2.55,0.66-5.62-0.08-7.41,2.92c-3.88,6.49-7.97,12.86-11.91,19.31c-0.52,0.85-1.29,1.87-0.44,2.92
		c2.18,2.7,0.85,4.99-0.8,7.23c-2.21,3.01-4.46,6-6.7,8.99c-3.91,3.58-6.93,7.65-8.26,12.93c-0.57,2.28,0.52,5.09-0.58,6.58
		c-3.41,4.66-4.01,10.26-6.14,15.31c-0.48,1.19-0.97,2.39-1.45,3.58c-0.44,0.69-0.88,1.38-1.32,2.07c-0.58,0.11-1.16,0.33-1.73,0.31
		c-15.26-0.62-30.52-0.1-45.78-0.25c-1.36-0.01-2.91-0.39-3.92,1.45c16.79,0,33.36,0,49.93,0c0.44,1.51-1.66,2.02-1.37,3.47
		c-3.08,2.53-6.5,4.34-10.18,5.95c-4.02,1.76-8.38,3.18-11.62,6.34c-4.44,4.32-8.52,9.07-14.74,11.02
		c-2.28,0.71-2.09,1.84-0.49,3.19c6.93,5.84,11.48,7.57,21.07,7.92c-3.49-2.27-7.06-4.27-9.8-7.36c0.3-2.01,1.95-2.45,3.51-2.97
		c4.06-1.34,8.32-2.26,10.92-6.24c1.38-2.12,2.5-4.53,4.98-5.72c1.19-0.06,2.43-0.06,3.31-0.99c2.17-2.28,4.99-3.42,7.78-4.7
		C168.3,131.6,171.08,130.95,172.65,128.47z M328.85,148.25c0.83-1.6,2.13-3,2.11-4.96c3.42-6.32,4.24-13.41,5.73-20.25
		c2.34-10.73,3.93-21.63,7.1-32.18c0.57-1.94,2.11-3.52,2.11-5.67c0.63-1.7,2.36-2.83,2.62-5.03c-4.29,1.31-8.58,0.17-12.67,0.89
		c-3.8,0.67-9.1-1.24-10.54,4.8c-1.48,1.41-1.51,3.17-1.22,5.01c0.4,5.36-0.83,10.43-2.63,15.42c-0.63,1.75-1.14,3.54-1.57,5.35
		c-0.51,2.16-0.72,4.26,2.33,4.76c2.24,0.37,1.22,1.61,0.75,2.76c-4.03,10.02-5.69,20.5-6.03,31.24c-0.69,0.85-0.99,1.79-0.66,2.88
		c-0.33,1.38-0.65,2.77-0.98,4.15c-2.05,3.05-1.58,6.5-1.74,9.86c0.99-2.75,1.75-5.54,1.89-8.46c3.46-0.38,6.83,1.53,10.16,0.59
		c-0.13-1.93-0.24-3.69-0.36-5.44C326.85,152.3,328.15,150.46,328.85,148.25z M34,95.9c5.24-2.66,8.65-7.05,11.42-12.05
		c0.26-0.43,0.51-0.86,0.77-1.28c6.32-6.54,14.49-10.7,21.34-16.69c9.2-8.05,19.48-15.04,30.27-20.95
		c7.28-3.99,11.98-10.34,18.04-16.18c-7.93,1.16-14.16,3.79-18.32,10.26c-1.37,2.13-3.35,4.2-5.54,5.41
		c-11.29,6.27-21.57,14.01-32.09,21.41C53,70.67,46.44,75.91,40.24,81.6c-4.56,3.17-8.43,7.07-11.89,11.39
		c-1.66,2.13-3.94,3.78-4.99,6.38c-0.3,0.69-0.6,1.39-0.89,2.08c-1.54,1.28-0.15,2.38,0.35,3.36c2.3,4.45,6.32,2.79,9.99,3.02
		c-0.62-2.46-2.84-3.51-3.26-5.64c0.47-0.94,0.94-1.87,1.41-2.81C32,98.24,32.58,96.7,34,95.9z M247.83,130.51
		c-1.41,0.79-2.82,1.58-4.23,2.38c-2.67,0.09-4.08,1.67-4.81,4.05c-0.54,1.17-1.07,2.33-1.61,3.5c-0.46,0.72-0.93,1.43-1.39,2.15
		c-0.78,0.23-1.54,0.53-2.33,0.68c-1.97,0.36-0.78,2.22-1.55,3.14c1.07,0.81,2.26,0.69,3.19-0.02c1.1-0.85,1.97-2,2.94-3.02
		c1.59,2.35,0.25,4.11-1.27,5.71c-1.68,1.76-3.52,3.38-4.71,5.52c-0.53,0.95-0.68,2.11-1.01,3.17c2.8,0.67,0.21,2.14,0.48,3.18
		c-1.35,1.15-2.38,2.52-2.86,4.25c-2.39,1.87-3.65,4.53-4.99,7.12c-0.47,1.27-0.75,2.66-1.47,3.78c-0.88,1.37-0.29,1.9,0.86,2.3
		c5.13,1.78,10.5,2.33,15.95,3.08c-2.67-1.79-2.65-4.33-2.37-6.96c2.35-2.13,4.71-4.26,7.06-6.39c1.15-1.27,1.74-2.84,2.35-4.39
		c0.77-1.67,1.69-3.3,2.29-5.03c1.78-5.11,3.44-10.27,5.14-15.4c0.57-1.34,1.14-2.68,1.71-4.02c1.59-1.08,2.42-2.65,2.86-4.46
		c2.09-0.96,4.46-1.28,6.29-2.83c0.71-0.71,1.42-1.41,2.13-2.12c4.88-4.45,8.75-9.76,12.8-14.91c3.52-4.99,7.88-9.37,10.67-14.89
		c1.34-0.89,1.61-2.31,2.15-3.72c1.05-2.76,1.03-5.86,2.8-8.37c1.26-0.27,2.61-0.32,3.51-1.47c3.72-0.76,4.6-3.95,5.67-6.83
		c3.2-8.59,4.72-17.64,7.21-26.42c0.91-0.94,1.43-2.05,1.67-3.73c-5.71,0.69-11.25,1.36-16.78,2.03c-2.14,0.26-3.3,1.59-3.94,3.51
		c-0.32,0.74-0.68,1.47-0.94,2.23c-3.28,9.69-3.94,20.21-9.26,29.26c-0.79,0.78-2.31,0.28-2.79,1.6c-2.08,0.31-4.24,0.59-4.85,3.09
		c-0.65,2.66-1.14,5.36-1.7,8.04c-4.21,4.9-7.81,10.24-11.34,15.62c-4.33,4.03-7.58,8.97-11.38,13.45
		C249.24,129.1,248.54,129.81,247.83,130.51z M498.86,51.78c-5.54,0.82-11.21,0.88-16.91,2.73c9.73,0.64,19.14,0.25,28.44-0.75
		c3.24-0.34,6.74,0.58,9.82-1.2c2.82,0,5.63,0,8.45,0c-8.92-1.88-17.9-2.4-26.93-2.09C500.61,50.51,499.24,50.09,498.86,51.78z
		 M479.24,79.55c3.88-1.57,6.21-5.62,10.27-6.74c4.85-1.33,6.98-5.31,9.55-8.88c0.6-0.83-0.53-0.58-0.98-0.64
		c-6.77,0.44-13.55,1.26-20.32,1.2c-4.91-0.04-7.64,1.95-10.01,6c-1.74,2.98-2.58,6.23-4.11,9.23
		c-6.73,13.22-14.03,26.1-23.16,37.88c-1.07,1.37-2.47,2.63-2.82,4.71c-0.92,5.5-0.78,11.02-0.57,16.51
		c0.25,6.64,5.06,15.9,14.39,14.44c0.78-0.12,1.62,0.18,2.43,0.24c5.54,0.4,11.06,1.26,17.24,1.12c-6.56-4.71-8.33-11.14-8.48-18.04
		c-0.27-12.64,2.83-24.7,7.16-36.48c1.65-5.58,5.13-10.42,6.43-16.14C477.85,82.89,478.56,81.23,479.24,79.55z M380.88,56.82
		c9.23-4.58,19.4-6.17,29.17-9.1c-10.78,0.55-21.43,1.98-31.91,4.5c-5.62,1.35-11.51,2.08-16.46,5.48
		c-1.01,0.43-3.06,0.16-2.37,1.96c0.87,2.27,2.51,4.25,5.06,4.92c6.85,1.82,13.74-0.02,20.58-0.22c3.14-0.09,6.55,0.13,10.66-0.95
		c-3.6-0.21-6.6,0.35-8.83-0.71C384.4,61.57,382.45,59.2,380.88,56.82z M661.8,17.9c1.18-0.88,2.36-1.77,2.28-3.47
		c-2.34-0.6-4.31,0.5-6.4,0.65c-7.07,0.51-14.14,1.19-21.13,2.28c-3.01,0.47-7.16-0.57-8.38,3.99c-0.77,0.51-1.58,0.97-2.3,1.54
		c-3.72,2.95-8.51,4.23-11.91,7.66c-2.09,0.38-3.03,2.14-4.27,3.55c-4.5,5.2-9.01,10.4-13.51,15.59c-2.65,2.9-6.59,5.32-4.93,10.13
		c1.16,3.36,2.26,6.8,4.25,9.82c1.45,4.88,2.21,9.73,0.17,14.7c-0.83,2.03-1.21,4.27-1.53,6.46c-0.15,0.99-0.65,2.64,1.11,2.84
		c1.5,0.17,3.32,0.72,4.2-1.37c3.48-8.25,10.17-14.68,13.33-23.12c2.09-0.25,3.71-1.47,4.21-3.32c0.7-2.63,2.5-4.48,3.75-6.7
		c2.44-4.32,6.42-7.54,8.45-12.12c4.15-4.65,8.86-8.81,12.16-14.18c1.38-1.44,2.77-2.88,4.15-4.32
		C650.95,24.98,656.38,21.44,661.8,17.9z M243.57,43.32c-2.5,5.43-2.31,11.61-4.78,17.04c-4.66,8.99-9.35,17.96-13.97,26.97
		c-3.5,6.82-6.91,13.69-10.36,20.54c-4.18,1.87-8.95,1.68-13.12,3.72c3.5,0.8,6.97-0.04,10.33-0.36c5.23-0.5,10.81,0.32,15.63-2.72
		c1.27-0.28,2.75,0.4,3.62-1.41c1.52-3.15,3.41-6.13,5.05-9.23c3.64-6.9,6.83-14.02,10.58-20.89c3.32-6.09,6.83-12.13,9.08-18.75
		c0.52-1.14,1.06-2.27,1.56-3.42c1.89-4.33,1.85-9.16,3.46-13.57c0.38-1.1,0.77-2.2,1.28-3.67c-5.38,0.94-10.48,1.85-15.59,2.71
		C244.54,40.57,243.77,41.66,243.57,43.32z M529.65,66.61c-0.32,1.16-3.12,2.54-0.45,3.43c4.44,1.48,3.97,4.66,3.73,8
		c-0.19,0.27-0.52,0.53-0.56,0.82c-1.44,10.23-5.25,19.59-9.87,28.77c-2.79,5.53-7.19,9.92-10.06,15.18
		c-3.63,6.65-7.72,12.79-12.88,18.28c-0.87,0.78-1.84,1.49-2.6,2.37c-0.87,1.02-2.9,1.79-2.15,3.28c0.69,1.37,2.6,1.63,4.27,1.5
		c6.26-0.5,12.44,1.25,18.68,0.63c1.79-0.18,3.93,2.31,5.04,0.06c0.79-1.61-0.75-3.75-1.29-5.64c5.26-11.13,10.55-22.25,15.76-33.41
		c2.94-6.31,5.74-12.68,8.61-19.03c1.36-1.94,2.62-3.94,2.85-6.38c1-1.28,1.78-2.66,2.13-4.25c2.8-4.62,4.62-9.78,7.83-14.18
		c1.41-0.55,2.18-1.78,2.61-3.05c1.03-3.04,3.1-5.32,5.11-7.67c4.19-1.92,4.68-6.58,7.53-9.58c-3.6-1.02-6.78,0.39-10.04,0.5
		c-6.3,0.23-12.59,0.91-18.89,1.34c-1.24,0.08-1.91,0.88-2.59,1.65c-1.54,1.75-2.98,3.58-4.47,5.38
		C535.01,58.51,531.71,62.14,529.65,66.61z M506.91,98.76c2.49-5.19,2.81-10.63,1.93-16.23c-0.21-1.36-0.35-3.29-1.54-3.44
		c-1.24-0.15-2.85,0.56-3.91,1.89c-4.8,6.07-8.95,12.53-11.86,19.69c-1.86,4.58-4.17,9.08-3.95,14.25c-1.38,2.3-0.72,5-1.46,7.45
		c-0.34,1.13,0.48,1.77,1.67,1.58c1.54-0.25,2.71-0.82,3.58-2.4c2.16-3.87,4.71-7.48,7.69-10.83
		C502.23,107.14,505.39,103.46,506.91,98.76z M403.58,68.99c-7.13,0.44-14.26,0.91-21.39,1.28c-1.12,0.06-1.33,0.79-1.7,1.47
		c-2.65,4.78-5.32,9.55-7.92,14.35c-0.52,0.96-1.19,1.85-0.33,3.18c2.63,4.07,4.76,8.46,7.84,12.25c2.76,4.67,3.44,4.66,6.3-0.09
		c2.63-4.37,5.37-8.68,7.84-13.14c3.03-5.46,5.82-11.05,8.71-16.58c0.66-0.25,0.61-0.85,0.7-1.39
		C404.43,69.86,404.75,69.4,403.58,68.99z M65.23,122.06c-0.95-1.38-2.38-0.69-3.57-0.69c-11.46-0.06-22.92-0.04-34.37-0.04
		c-3.29,0-6.58,0-9.87,0c15.95,1.84,31.91,0.19,47.86,0.68c-1.92,8.34-3.81,16.7-5.77,25.03c-2.43,10.36-4.42,20.81-8.35,30.81
		c-3.5,8.91-7.67,17.68-8.55,27.44c-0.13,1.41-0.63,2.97,0.93,3.8c2.53,1.35,5.18,2.49,8.11,3.87c-0.3-9.22,3-17.06,6.04-25.01
		c2.48-6.48,5.38-12.79,6.87-19.65c2.69-12.36,5.74-24.63,8.65-36.95c1.19-0.47,1.62-1.15,0.61-2.22c0.05-0.43,0.1-0.87,0.15-1.3
		c0.4-0.23,1.02-0.35,1.18-0.69c1.69-3.69,3.37-7.38,4.88-11.15c0.35-0.88,0.36-2.18-1.15-2.47c0.67-3.55,2.96-6.27,4.59-9.36
		c2.49-4.72,4.31-9.78,6.5-14.65c3.36-7.46,6.79-14.9,10.2-22.34c0.42-0.92,1.46-2.07-0.36-2.41c-2.58-0.47-10.52,4.03-11.54,6.29
		c-2.49,5.51-4.85,11.07-7.51,16.49C75.18,98.87,69.22,110.02,65.23,122.06z M624.03,87.4c-3,1.44-5.11,3.36-7.01,5.32
		c-8.54,8.84-15.29,19.21-23.97,27.97c-4.64,4.68-8.25,5.72-14.12,3.21c-5.92-2.53-7-5.05-5.7-11.31c0.92-4.45,2.15-9.04,0.02-13.63
		c-1.85,0.94-3.34,2.04-4.63,3.43c-5.68,6.14-10.34,13.02-14.81,20.04c-0.54,0.85-2.07,1.43-1.53,2.53
		c0.61,1.25,2.15,0.63,3.23,0.57c8.26-0.47,16.44,1.09,24.92,0.74c-1.54,5.16-3.01,10.04-4.45,14.92
		c-3.37,11.43-6.92,22.82-10.04,34.32c-2.64,9.71,1.18,14.4,11.26,15.39c2.87,0.28,5.79,0.53,8.68,0.98
		c5.58,0.88,11.25,1.24,17.49,1.87c-6.76-4.67-7.69-7.15-5.7-14.99c1.46-5.76,3.01-11.5,4.73-17.19
		c6.2-20.43,12.59-40.8,18.66-61.27C622.28,96.26,624.48,92.33,624.03,87.4z M413.82,61.51c2.89,0.67,2.37,2.37,1.65,4.35
		c-2.87,7.93-7.09,15.38-5.09,24.59c1.34,6.17-2.57,11.95-3.86,17.96c-1.69,7.87-4.5,15.38-7.4,22.85
		c-0.71,1.84-0.32,2.85,1.59,2.78c6.73-0.27,13.38,1.27,20.11,0.74c0.56-0.04,1.16,0.32,1.61-0.71c3.33-7.64,6.65-15.27,8.12-23.54
		c0.29-1.62,0.42-3.38-1.75-3.97c-1.62-0.44-1.71-1.63-1.77-3.02c-0.09-2.15,0.3-4.16,1.05-6.16c4.11-10.97,8.2-21.95,12.24-32.94
		c0.53-1.43,1.65-3.03-0.38-4.32c-2.24-1.43-4.6-2.27-7.31-1.8C426.48,59.37,420.31,60.41,413.82,61.51z M299.96,181.46
		c-5.14-2.46-6.23-4.45-5.03-9.9c1.25-5.67,2.76-11.28,3.9-16.97c1.42-7.11,4.02-14.13,2.42-21.57c-0.18-0.85,0.87-2.52-1.52-2.17
		c-5.32,0.78-10.11,2.8-14.31,6.04c-1.38,1.07-3.26,2.05-3.38,4.27c-0.23,4.2-1.75,8.14-2.61,12.22c-1.43,6.81-3.43,13.5-3.75,20.5
		c-0.04,0.97-0.59,2.12,1.17,2.82C284.28,179.68,292.14,180.42,299.96,181.46z M101.88,109.44c7.66-1.9,14.85-4.67,21.82-8.01
		c1.77-0.85,1.14-1.86,0.07-3.01c-2.35-2.5-2.11-3.8,0.96-5.13c11.3-4.91,20.71-12.29,28.39-21.82c1.92-2.38,4.75-4.8,2.97-8.63
		c-3.34-7.17-16.77-14.64-24.83-13.86c-1.97,0.19-2.49,1.65-2.96,3.04c-0.55,1.63,0.74,1.85,1.97,2.14
		c3.02,0.71,5.43,2.64,7.88,4.34c4.61,3.18,6.26,8.72,3.55,12.23c-4.88,6.33-10.54,11.91-17.04,16.65
		c-3.78,2.75-7.96,4.75-12.1,6.85c-1.28,0.65-3.53,1.62-1.93,3.07c4,3.62,1.24,4.53-1.74,5.74c-1.4,0.57-2.68,1.57-4.12,1.89
		C102.37,105.46,101.61,106.82,101.88,109.44z M373.19,158.8c-1.77-1.45-4.62-0.99-5.13-3.86c-1.2-6.81-4-13.48-1.62-20.59
		c0.24-0.7,0.2-2-0.24-2.35c-2.29-1.81-1.53-4.27-1.7-6.54c-0.23-3.04-0.54-6.07-0.69-9.11c-0.07-1.4-0.97-1.67-1.88-1.32
		c-1.58,0.61-3.13,1.24-3.91,3.15c-0.71,1.75-0.78,3.59-1.4,5.36c-2.71,7.71-7.86,14.12-11.03,21.59
		c-1.74,4.12,0.17,9.65,4.44,10.92C357.6,158.29,365.51,157.87,373.19,158.8z M170.41,160.51c0.04-2.89,0.37-5.88-1.93-7.73
		c-2.23-1.8-11.07,2.56-11.53,5.55c-0.64,4.15-2,8.08-3.27,12.05c-1.05,3.3-2.55,6.48-2.66,10.08c-0.04,1.24,0.13,1.61,1.25,1.84
		c3.29,0.67,6.6,1.31,9.85,2.17c1.7,0.45,2.67,0.46,2.63-1.64c-0.06-2.73,1.15-5.18,1.81-7.76
		C167.79,170.14,170.96,165.71,170.41,160.51z M302.7,114.37c0.04-4.1-2.43-5.83-4.94-7.69c-1.28-0.95-1.97-0.51-2.48,0.44
		c-3.02,5.63-7.03,10.7-9.28,16.76c-0.35,0.95-0.66,1.76,0.14,2.59c0.79,0.82,1.64,1.18,2.85,0.82c2.98-0.89,5.33-3.2,8.17-4.01
		C302.37,121.78,301.59,117.38,302.7,114.37z M133.86,112.73c5.11-0.02,11.16,3.37,14.6-3.31c0.38-0.74,1.8-1.12,0.91-2.28
		c-0.83-1.08-1.75-0.62-2.81-0.12C142.36,108.99,138.1,110.84,133.86,112.73z M634.82,131.18c-4.56,3.76-6.14,8.02-5.34,12.11
		C631.3,139.18,633.06,135.18,634.82,131.18z M521.67,40.06c-5.82-0.34-11.49,0.84-17.22,1.55
		C510.31,42.3,516.04,41.76,521.67,40.06z M473.89,41.39c-3.23,0.72-6.55,0.62-9.82,0.98C467.35,42.13,470.73,43.39,473.89,41.39z
		 M134.92,25.76c-1.84-0.19-3.26-0.27-3.83,1.22c-0.2,0.52,0.31,1.8,1.18,1.9C134.32,29.14,133.86,27.11,134.92,25.76z
		 M392.58,147.85c0.8-2.43,2.24-3.69,2.22-6.29C393.07,143.36,391.86,144.67,392.58,147.85z M634.91,128.93
		c-0.03,0.09-0.1,0.19-0.09,0.26c0.08,0.32,0.22,0.33,0.35,0.03c0.03-0.07-0.01-0.2-0.05-0.27
		C635.1,128.92,634.98,128.94,634.91,128.93z M55.94,95.6c0.09-0.04,0.18-0.09,0.27-0.13c-0.16-0.02-0.33-0.03-0.49-0.05
		C55.79,95.48,55.87,95.54,55.94,95.6z"/>
	<path class="st1" d="M200.99,215.61c-3.19-1.99-6.91-2.48-10.43-3.42c-2.02-0.54-2.34-1.41-2.4-3.14
		c-0.16-4.63,1.62-8.9,2.33-13.37c1.19-7.44,2.47-14.87,3.39-22.36c1.33-10.88,3.87-21.41,8.77-31.3c1.75-3.53,3.21-7.19,4.05-11.08
		c0.54-2.49,12.24-10.06,14.69-9.59c1.56,0.3,2.36,1.03,2.39,2.84c0.08,5.87-1.98,11.15-4.09,16.45
		c-2.16,5.44-4.35,10.86-6.51,16.29c-2.37,5.95-2.45,12.35-3.56,18.54c-2.12,11.75-3.28,23.68-6.21,35.28
		c-0.42,1.66,0.09,3.26-0.29,4.85C202.41,215.61,201.7,215.61,200.99,215.61z"/>
	<path class="st2" d="M624.03,87.4c0.45,4.93-1.75,8.86-2.96,12.93c-6.07,20.47-12.46,40.84-18.66,61.27
		c-1.73,5.69-3.27,11.43-4.73,17.19c-1.99,7.84-1.05,10.32,5.7,14.99c-6.24-0.64-11.91-1-17.49-1.87c-2.89-0.45-5.81-0.7-8.68-0.98
		c-10.08-0.99-13.9-5.68-11.26-15.39c3.12-11.5,6.67-22.89,10.04-34.32c1.44-4.89,2.91-9.77,4.45-14.92
		c-8.48,0.35-16.66-1.21-24.92-0.74c-1.08,0.06-2.62,0.68-3.23-0.57c-0.54-1.11,0.99-1.68,1.53-2.53
		c4.47-7.03,9.13-13.91,14.81-20.04c1.29-1.4,2.78-2.5,4.63-3.43c2.13,4.58,0.9,9.18-0.02,13.63c-1.3,6.26-0.22,8.78,5.7,11.31
		c5.87,2.51,9.48,1.47,14.12-3.21c8.68-8.76,15.43-19.13,23.97-27.97C618.91,90.76,621.02,88.84,624.03,87.4z"/>
	<path class="st1" d="M469.83,100.1c-4.33,11.78-7.43,23.84-7.16,36.48c0.15,6.9,1.91,13.33,8.48,18.04
		c-6.18,0.14-11.7-0.72-17.24-1.12c-0.81-0.06-1.65-0.36-2.43-0.24c-9.33,1.46-14.14-7.8-14.39-14.44
		c-0.21-5.49-0.34-11.01,0.57-16.51c0.35-2.07,1.75-3.33,2.82-4.71c9.14-11.78,16.43-24.65,23.16-37.88
		c1.53-2.99,2.36-6.25,4.11-9.23c2.37-4.04,5.1-6.04,10.01-6c6.77,0.06,13.55-0.76,20.32-1.2c-2.4,2.22-5.25,3.84-7.91,5.71
		c-4.93,3.47-10.61,5.91-14.73,10.5c-1.25,0.65-2.17,1.65-2.89,2.83c-3.96,3.67-5.36,9-8.63,13.12c-0.85,1.07-0.33,2.36,0.95,2.31
		C467.06,97.67,468.25,99.19,469.83,100.1z"/>
	<path class="st1" d="M413.82,61.51c6.49-1.1,12.65-2.15,18.81-3.2c2.71-0.47,5.07,0.38,7.31,1.8c2.03,1.29,0.91,2.89,0.38,4.32
		c-4.04,10.99-8.13,21.97-12.24,32.94c-0.75,2-1.14,4.01-1.05,6.16c0.06,1.39,0.15,2.58,1.77,3.02c2.18,0.6,2.04,2.36,1.75,3.97
		c-1.46,8.27-4.79,15.9-8.12,23.54c-0.45,1.03-1.05,0.67-1.61,0.71c-6.73,0.53-13.38-1-20.11-0.74c-1.9,0.08-2.3-0.94-1.59-2.78
		c2.9-7.47,5.71-14.98,7.4-22.85c1.29-6.01,5.2-11.79,3.86-17.96c-2-9.2,2.22-16.66,5.09-24.59
		C416.19,63.88,416.71,62.18,413.82,61.51z"/>
	<path class="st1" d="M65.23,122.06c3.99-12.03,9.94-23.18,15.51-34.51c2.66-5.42,5.03-10.99,7.51-16.49
		c1.02-2.26,8.96-6.76,11.54-6.29c1.82,0.33,0.78,1.49,0.36,2.41c-3.41,7.44-6.84,14.87-10.2,22.34c-2.19,4.88-4.02,9.94-6.5,14.65
		c-1.62,3.08-3.92,5.81-4.59,9.36c-3,4.3-3.5,9.46-4.91,14.31c-0.05,0.43-0.1,0.87-0.15,1.3c-1.05,0.51-0.76,1.38-0.61,2.22
		c-2.9,12.31-5.96,24.59-8.65,36.95c-1.49,6.87-4.4,13.18-6.87,19.65c-3.04,7.95-6.34,15.79-6.04,25.01
		c-2.93-1.38-5.57-2.52-8.11-3.87c-1.56-0.83-1.06-2.39-0.93-3.8c0.88-9.75,5.06-18.53,8.55-27.44c3.93-10,5.92-20.45,8.35-30.81
		c1.96-8.34,3.85-16.69,5.77-25.03L65.23,122.06z"/>
	<path class="st3" d="M550.84,80.24c-0.35,1.6-1.14,2.98-2.13,4.25c-3.49,1.13-4.28,2.91-2.85,6.38
		c-2.86,6.35-5.66,12.72-8.61,19.03c-5.21,11.16-10.5,22.27-15.76,33.41c-5.81-0.04-11.58-1.06-17.42-0.81
		c-1.51,0.07-3.23-0.26-4.53-1.4c5.16-5.49,9.24-11.63,12.88-18.28c2.87-5.27,7.28-9.66,10.06-15.18
		c4.63-9.18,8.43-18.55,9.87-28.77c0.04-0.29,0.37-0.55,0.56-0.82c2.7-0.31,5.57,3.09,8.21-0.48c0.38-0.51,2.03-0.24,3.06-0.07
		C546.62,77.87,548.86,78.76,550.84,80.24z"/>
	<path class="st1" d="M316.94,150.38c0.34-10.73,2-21.21,6.03-31.24c0.46-1.16,1.49-2.4-0.75-2.76c-3.04-0.5-2.84-2.6-2.33-4.76
		c0.43-1.81,0.94-3.6,1.57-5.35c1.8-4.99,3.03-10.06,2.63-15.42c1.53-0.06,3.05-0.29,4.56-0.41c5.04-0.41,10.13-0.9,15.14,0.41
		c-3.16,10.56-4.76,21.45-7.1,32.18c-1.49,6.84-2.31,13.93-5.73,20.25c-2.8,0.38-4.46,2.44-6.28,4.27
		c-1.02,0.71-0.65,2.46-2.14,2.83c-0.24,0-0.47,0-0.71,0C320.21,151.09,318.57,150.06,316.94,150.38z"/>
	<path class="st2" d="M299.96,181.46c-7.83-1.04-15.68-1.77-23.12-4.76c-1.75-0.7-1.21-1.85-1.17-2.82c0.31-7,2.32-13.7,3.75-20.5
		c0.86-4.08,2.38-8.02,2.61-12.22c0.12-2.23,2-3.21,3.38-4.27c4.2-3.24,8.99-5.25,14.31-6.04c2.38-0.35,1.34,1.32,1.52,2.17
		c1.6,7.45-1,14.46-2.42,21.57c-1.14,5.69-2.65,11.3-3.9,16.97C293.73,177.01,294.83,179,299.96,181.46z"/>
	<path class="st3" d="M255.62,58.23c-2.25,6.62-5.76,12.66-9.08,18.75c-3.74,6.86-6.93,13.99-10.58,20.89
		c-1.64,3.1-3.53,6.08-5.05,9.23c-0.88,1.81-2.35,1.13-3.62,1.41c-0.96-1.01-2.21-0.6-3.35-0.62c-3.16-0.05-6.32-0.02-9.49-0.02
		c3.45-6.85,6.86-13.72,10.36-20.54c4.62-9.01,9.31-17.98,13.97-26.97C244.48,60.35,250.27,61.04,255.62,58.23z"/>
	<path class="st4" d="M101.88,109.44c-0.27-2.62,0.49-3.98,2.9-4.51c1.44-0.32,2.71-1.32,4.12-1.89c2.98-1.21,5.74-2.12,1.74-5.74
		c-1.6-1.45,0.64-2.42,1.93-3.07c4.14-2.1,8.32-4.1,12.1-6.85c6.5-4.73,12.16-10.32,17.04-16.65c2.71-3.51,1.06-9.05-3.55-12.23
		c-2.46-1.7-4.87-3.63-7.88-4.34c-1.23-0.29-2.52-0.5-1.97-2.14c0.47-1.4,0.99-2.85,2.96-3.04c8.06-0.78,21.49,6.69,24.83,13.86
		c1.78,3.83-1.05,6.25-2.97,8.63c-7.68,9.53-17.1,16.91-28.39,21.82c-3.07,1.34-3.31,2.63-0.96,5.13c1.07,1.14,1.71,2.16-0.07,3.01
		C116.73,104.77,109.54,107.54,101.88,109.44z"/>
	<path class="st1" d="M373.19,158.8c-7.68-0.93-15.59-0.5-23.16-2.75c-4.27-1.27-6.18-6.8-4.44-10.92
		c3.16-7.46,8.32-13.88,11.03-21.59c0.62-1.77,0.7-3.61,1.4-5.36c0.77-1.91,2.32-2.54,3.91-3.15c0.91-0.35,1.81-0.08,1.88,1.32
		c0.16,3.04,0.46,6.07,0.69,9.11c0.17,2.27-0.59,4.73,1.7,6.54c0.44,0.35,0.48,1.64,0.24,2.35c-2.39,7.11,0.41,13.78,1.62,20.59
		C368.57,157.81,371.42,157.35,373.19,158.8z"/>
	<path class="st5" d="M282.01,86.59c5.32-9.05,5.98-19.57,9.26-29.26c0.26-0.76,0.62-1.49,0.94-2.23
		c6.49,0.86,12.69-1.29,19.05-1.81c-2.5,8.78-4.01,17.84-7.21,26.42c-1.08,2.88-1.95,6.07-5.67,6.83c-0.69-0.95-1.76-0.82-2.6-0.61
		C291.22,87.05,286.6,86.36,282.01,86.59z"/>
	<path class="st6" d="M595.51,69.65c-1.99-3.03-3.08-6.46-4.25-9.82c-1.67-4.81,2.28-7.23,4.93-10.13c2.56,0.6,4.49-2.54,6.61-1.73
		c5.33,2.04,10.37-0.07,15.53-0.26c2.23-0.08,4.69,0.26,6.54-1.07c1.8-1.31,2.97-0.6,4.34,0.38c-2.03,4.58-6.01,7.8-8.45,12.12
		c-1.26,2.23-3.05,4.07-3.75,6.7c-0.49,1.85-2.12,3.07-4.21,3.32c-1.26-3.97-4.7-1.84-6.89-1.97
		C602.4,66.98,598.54,67.04,595.51,69.65z"/>
	<path class="st7" d="M181.75,80.82c2.23-3,4.48-5.98,6.7-8.99c1.65-2.24,2.97-4.53,0.8-7.23c-0.85-1.06-0.08-2.08,0.44-2.92
		c3.95-6.45,8.04-12.82,11.91-19.31c1.79-3,4.86-2.26,7.41-2.92c2.88-0.75,5.87-1.07,9.33-1.67c-8.73,15.1-18.39,29.1-26.45,44.02
		c-0.88-1.21-1.97-0.68-3.13-0.51C186.4,81.62,183.98,82.39,181.75,80.82z"/>
	<path class="st2" d="M380.08,101.52c-3.07-3.79-5.2-8.18-7.84-12.25c-0.86-1.33-0.19-2.22,0.33-3.18c2.6-4.8,5.26-9.58,7.92-14.35
		c0.38-0.68,0.59-1.42,1.7-1.47c7.13-0.37,14.26-0.84,21.39-1.28c0.01,0.45,0.03,0.9,0.04,1.35c-0.09,0.53-0.04,1.14-0.7,1.39
		c-0.8,0-1.24,0.46-1.68,1.09c-2.3,3.26-4.59,6.54-6.99,9.72C389.48,88.82,385.67,95.84,380.08,101.52z"/>
	<path class="st5" d="M181.75,80.82c2.23,1.57,4.66,0.8,6.99,0.47c1.16-0.17,2.25-0.7,3.13,0.51c-3.52,11.32-6.61,22.78-10.91,33.85
		c-4.73-0.09-9.46-0.79-14.19-0.01c2.13-5.05,2.73-10.64,6.14-15.31c1.09-1.49,0-4.3,0.58-6.58
		C174.82,88.47,177.84,84.4,181.75,80.82z"/>
	<path class="st8" d="M629.21,47.02c-1.36-0.98-2.53-1.69-4.34-0.38c-1.85,1.34-4.31,0.99-6.54,1.07
		c-5.16,0.19-10.21,2.3-15.53,0.26c-2.12-0.81-4.05,2.33-6.61,1.73c4.5-5.2,9.01-10.4,13.51-15.59c1.92,0.54,3.83,0.82,5.88,0.63
		c8.58-0.8,17.11-2.41,25.79-1.9C638.07,38.21,633.36,42.37,629.21,47.02z"/>
	<path class="st2" d="M170.41,160.51c0.55,5.2-2.62,9.63-3.87,14.55c-0.65,2.58-1.86,5.03-1.81,7.76c0.04,2.1-0.93,2.09-2.63,1.64
		c-3.25-0.87-6.55-1.5-9.85-2.17c-1.11-0.23-1.29-0.6-1.25-1.84c0.11-3.6,1.61-6.78,2.66-10.08c1.27-3.97,2.63-7.9,3.27-12.05
		c0.46-2.99,9.3-7.35,11.53-5.55C170.78,154.63,170.45,157.62,170.41,160.51z"/>
	<path class="st9" d="M40.24,81.6c6.2-5.7,12.76-10.93,19.65-15.77c10.52-7.4,20.79-15.14,32.09-21.41
		c2.19-1.22,4.17-3.29,5.54-5.41c4.16-6.46,10.39-9.09,18.32-10.26c-6.06,5.84-10.76,12.19-18.04,16.18
		C87,50.84,76.73,57.83,67.53,65.88c-6.85,5.99-15.02,10.15-21.34,16.69C44.45,80.77,42.21,82.01,40.24,81.6z"/>
	<path class="st1" d="M135.38,153.32c2.74,3.09,6.31,5.09,9.8,7.36c-9.58-0.35-14.13-2.07-21.07-7.92c-1.6-1.35-1.79-2.48,0.49-3.19
		c6.22-1.95,10.29-6.69,14.74-11.02c3.24-3.15,7.6-4.58,11.62-6.34c3.68-1.61,7.11-3.42,10.18-5.95c1.68,1.4,4.07,0.98,5.8,2.25
		c-1.13,1.43-2.87,2.01-4.25,3.09c-2.55,1.99-5.91,2.86-7.84,5.68c-2.81-0.68-4.26,1.44-5.85,3c-4.47,4.41-8.93,8.75-15.29,10.38
		c-0.53,0.14-1.44,0.43-1.19,1.53C133.33,152.84,134.3,153.21,135.38,153.32z"/>
	<path class="st1" d="M487.57,114.93c-0.22-5.17,2.09-9.68,3.95-14.25c2.91-7.16,7.06-13.63,11.86-19.69
		c1.06-1.34,2.68-2.05,3.91-1.89c1.2,0.15,1.33,2.07,1.54,3.44c0.88,5.6,0.56,11.04-1.93,16.23c-2.96,0.24-4.06,2.92-5.92,4.57
		C496.56,107.25,492.57,111.67,487.57,114.93z"/>
	<path class="st4" d="M235.79,142.59c0.46-0.72,0.93-1.43,1.39-2.15c2.81,0.81,5.58,1.56,8.59,1.55c2.58-0.01,5.31-0.05,7.71,1.32
		c-1.7,5.14-3.36,10.29-5.14,15.4c-0.6,1.73-1.52,3.36-2.29,5.03c-0.56-1.42-1.84-1.1-2.97-1.33c-3.83-0.77-7.86,0.1-11.57-1.46
		c-0.26-1.05,2.32-2.51-0.48-3.18c0.33-1.06,0.48-2.22,1.01-3.17c1.19-2.14,3.03-3.76,4.71-5.52c1.52-1.59,2.87-3.36,1.27-5.71
		C237.28,143.1,236.53,142.84,235.79,142.59z"/>
	<path class="st10" d="M566.4,55.34c-2.01,2.35-4.09,4.63-5.11,7.67c-0.43,1.27-1.2,2.5-2.61,3.05c-5.48-0.39-10.99-1.98-16.39,0.51
		c-0.77,0.36-1.28-0.32-1.68-0.93c-0.34-0.51-1.08-1.11-1.42-0.74c-2.78,2.99-6.51,0.37-9.53,1.71c2.07-4.48,5.36-8.1,8.29-11.99
		c0.5,0.25,1.02,0.75,1.51,0.73c6.42-0.31,12.84-0.78,19.27-1.01C561.29,54.24,564.17,52.52,566.4,55.34z"/>
	<path class="st11" d="M529.65,66.61c3.02-1.34,6.75,1.27,9.53-1.71c0.34-0.36,1.08,0.23,1.42,0.74c0.41,0.61,0.91,1.28,1.68,0.93
		c5.4-2.49,10.91-0.9,16.39-0.51c-3.21,4.4-5.03,9.56-7.83,14.18c-1.98-1.48-4.22-2.37-6.64-2.75c-1.03-0.16-2.68-0.43-3.06,0.07
		c-2.64,3.57-5.52,0.17-8.21,0.48c0.24-3.34,0.71-6.52-3.73-8C526.52,69.15,529.33,67.78,529.65,66.61z"/>
	<path class="st1" d="M255.62,58.23c-5.34,2.81-11.13,2.12-16.83,2.13c2.48-5.43,2.29-11.61,4.78-17.04
		c5.73-0.38,11.3-2.05,17.07-2.08c-1.61,4.41-1.57,9.23-3.46,13.57C256.67,55.95,256.14,57.09,255.62,58.23z"/>
	<path class="st12" d="M261.33,114.94c3.54-5.38,7.14-10.72,11.34-15.62c5.76,0.18,11.54-0.3,17.26,0.77
		c-2.78,5.51-7.15,9.9-10.67,14.89C273.29,113.62,267.31,114.98,261.33,114.94z"/>
	<path class="st13" d="M613.97,30.56c3.4-3.43,8.19-4.72,11.91-7.66c0.72-0.57,1.53-1.03,2.3-1.54c4.9,0.29,9.83-0.49,14.54-1.18
		c6.35-0.94,12.77-1.14,19.08-2.28c-5.43,3.54-10.85,7.08-16.28,10.62c-3.18,0.03-6.38-0.18-9.53,0.14
		C628.66,29.39,621.37,30.59,613.97,30.56z"/>
	<path class="st14" d="M595.51,69.65c3.02-2.62,6.89-2.67,10.39-2.46c2.2,0.13,5.63-2,6.89,1.97c-3.16,8.44-9.85,14.86-13.33,23.12
		c-0.88,2.09-2.7,1.54-4.2,1.37c-1.77-0.2-1.26-1.85-1.11-2.84c0.32-2.18,0.7-4.43,1.53-6.46
		C597.72,79.38,596.96,74.53,595.51,69.65z"/>
	<path class="st15" d="M261.33,114.94c5.98,0.04,11.96-1.32,17.93,0.04c-4.05,5.15-7.92,10.46-12.8,14.91
		c-1.7-1.09-3.62-0.62-5.45-0.77c-3.68-0.29-7.46,0.77-11.06-0.73C253.75,123.91,257,118.97,261.33,114.94z"/>
	<path class="st8" d="M566.4,55.34c-2.22-2.82-5.11-1.09-7.68-1c-6.43,0.24-12.84,0.7-19.27,1.01c-0.49,0.02-1-0.47-1.51-0.73
		c1.48-1.8,2.93-3.63,4.47-5.38c0.68-0.77,1.35-1.56,2.59-1.65c6.3-0.43,12.58-1.11,18.89-1.34c3.27-0.12,6.44-1.52,10.04-0.5
		C571.08,48.76,570.58,53.42,566.4,55.34z"/>
	<path class="st4" d="M302.7,114.37c-1.11,3.02-0.33,7.41-5.54,8.9c-2.84,0.81-5.2,3.12-8.17,4.01c-1.22,0.36-2.06,0.01-2.85-0.82
		c-0.8-0.83-0.49-1.64-0.14-2.59c2.25-6.06,6.26-11.13,9.28-16.76c0.51-0.96,1.2-1.4,2.48-0.44
		C300.27,108.54,302.73,110.26,302.7,114.37z"/>
	<path class="st4" d="M289.93,100.09c-5.72-1.07-11.5-0.6-17.26-0.77c0.56-2.68,1.06-5.38,1.7-8.04c0.61-2.5,2.76-2.79,4.85-3.09
		c1,0.93,2.24,0.49,3.38,0.54c4.12,0.19,8.21-0.11,12.28-0.72c-1.77,2.5-1.75,5.61-2.8,8.37C291.54,97.78,291.26,99.2,289.93,100.09
		z"/>
	<path class="st2" d="M380.88,56.82c1.56,2.38,3.51,4.75,5.89,5.89c2.23,1.06,5.23,0.5,8.83,0.71c-4.11,1.08-7.52,0.86-10.66,0.95
		c-6.84,0.2-13.73,2.04-20.58,0.22c-2.55-0.68-4.19-2.65-5.06-4.92c-0.69-1.8,1.36-1.53,2.37-1.96c1.61,1.04,3.44,0.65,5.08,0.43
		C371.46,57.51,376.16,57.03,380.88,56.82z"/>
	<path class="st2" d="M499.55,141.11c1.3,1.13,3.02,1.46,4.53,1.4c5.84-0.25,11.61,0.77,17.42,0.81c0.54,1.89,2.08,4.03,1.29,5.64
		c-1.11,2.25-3.25-0.23-5.04-0.06c-6.23,0.62-12.42-1.13-18.68-0.63c-1.67,0.13-3.58-0.13-4.27-1.5c-0.75-1.49,1.27-2.26,2.15-3.28
		C497.71,142.6,498.68,141.89,499.55,141.11z"/>
	<path class="st16" d="M380.88,56.82c-4.73,0.21-9.42,0.7-14.12,1.32c-1.64,0.22-3.47,0.6-5.08-0.43c4.96-3.4,10.84-4.13,16.46-5.48
		c10.48-2.52,21.13-3.96,31.91-4.5C400.28,50.65,390.12,52.24,380.88,56.82z"/>
	<path class="st12" d="M487.57,114.93c5-3.26,8.99-7.68,13.41-11.6c1.86-1.64,2.97-4.32,5.92-4.57c-1.52,4.7-4.68,8.38-7.86,11.96
		c-2.97,3.35-5.53,6.96-7.69,10.83c-0.88,1.58-2.04,2.15-3.58,2.4c-1.18,0.19-2.01-0.45-1.67-1.58
		C486.86,119.93,486.19,117.23,487.57,114.93z"/>
	<path class="st17" d="M613.97,30.56c7.4,0.03,14.68-1.18,22.02-1.91c3.15-0.31,6.35-0.11,9.53-0.14c-1.38,1.44-2.77,2.88-4.15,4.32
		c-8.68-0.51-17.21,1.09-25.79,1.9c-2.05,0.19-3.95-0.09-5.88-0.63C610.94,32.7,611.88,30.94,613.97,30.56z"/>
	<path class="st14" d="M380.08,101.52c5.6-5.69,9.41-12.7,14.18-19c2.41-3.18,4.7-6.45,6.99-9.72c0.44-0.62,0.88-1.08,1.68-1.09
		c-2.89,5.53-5.69,11.12-8.71,16.58c-2.47,4.46-5.21,8.77-7.84,13.14C383.51,106.18,382.83,106.19,380.08,101.52z"/>
	<path class="st15" d="M661.8,17.9c-6.31,1.13-12.73,1.33-19.08,2.28c-4.71,0.7-9.64,1.48-14.54,1.18c1.21-4.56,5.36-3.52,8.38-3.99
		c6.99-1.09,14.07-1.78,21.13-2.28c2.09-0.15,4.06-1.25,6.4-0.65C664.16,16.13,662.99,17.02,661.8,17.9z"/>
	<path class="st18" d="M469.83,100.1c-1.58-0.91-2.77-2.42-4.96-2.33c-1.28,0.05-1.81-1.23-0.95-2.31
		c3.28-4.12,4.68-9.46,8.63-13.12c0.48,2.27,2.93,0.06,3.71,1.63C474.96,89.67,471.48,94.52,469.83,100.1z"/>
	<path class="st17" d="M223.66,172.32c1.34-2.6,2.6-5.26,4.99-7.12c4.85,1.8,9.99,2.15,15.05,2.94c-2.35,2.13-4.71,4.26-7.06,6.39
		C232.47,172.85,228.01,172.92,223.66,172.32z"/>
	<path class="st1" d="M223.66,172.32c4.35,0.6,8.81,0.54,12.98,2.2c-0.28,2.62-0.31,5.16,2.37,6.96c-5.45-0.75-10.82-1.3-15.95-3.08
		c-1.15-0.4-1.74-0.93-0.86-2.3C222.9,174.98,223.18,173.59,223.66,172.32z"/>
	<path class="st18" d="M343.79,90.85c-5.01-1.31-10.1-0.81-15.14-0.41c-1.5,0.12-3.03,0.35-4.56,0.41c-0.29-1.84-0.26-3.6,1.22-5.01
		c6.87,0.02,13.7-1.12,20.58-0.67C345.9,87.33,344.36,88.91,343.79,90.85z"/>
	<path class="st14" d="M166.94,128.51c-1.73-1.27-4.12-0.84-5.8-2.25c-0.28-1.45,1.81-1.96,1.37-3.47c0.75-0.06,1.5-0.12,2.25-0.18
		c-0.25-0.44-0.51-0.88-0.76-1.32c0.44-0.69,0.88-1.38,1.32-2.07c4.1,1.7,8.77-0.11,12.78,2.1c-0.8,2.4-2.61,4.16-3.92,6.24
		c-2.58-2.53-4.65-1.29-6.6,0.88C167.37,128.45,167.16,128.48,166.94,128.51z"/>
	<path class="st14" d="M345.9,85.18c-6.88-0.45-13.71,0.69-20.58,0.67c1.43-6.04,6.74-4.13,10.54-4.8
		c4.09-0.72,8.38,0.42,12.67-0.89C348.26,82.35,346.54,83.48,345.9,85.18z"/>
	<path class="st17" d="M40.24,81.6c1.97,0.41,4.21-0.83,5.95,0.97c-0.26,0.43-0.51,0.86-0.77,1.29c-3.89,2.43-6.3,6.48-10,9.13
		c-2.35-0.43-4.71,0.97-7.06,0C31.82,88.67,35.68,84.77,40.24,81.6z"/>
	<path class="st11" d="M243.7,168.13c-5.05-0.79-10.19-1.14-15.05-2.94c0.48-1.73,1.51-3.1,2.86-4.25
		c3.72,1.57,7.75,0.69,11.57,1.46c1.13,0.23,2.41-0.09,2.97,1.33C245.43,165.3,244.85,166.87,243.7,168.13z"/>
	<path class="st19" d="M475.44,79.5c4.13-4.59,9.8-7.03,14.73-10.5c2.66-1.87,5.5-3.49,7.91-5.71c0.45,0.07,1.58-0.19,0.98,0.64
		c-2.57,3.57-4.7,7.55-9.55,8.88c-4.06,1.11-6.39,5.17-10.27,6.74C477.97,79.53,476.7,79.51,475.44,79.5z"/>
	<path class="st20" d="M164.01,121.29c0.25,0.44,0.51,0.88,0.76,1.32c-0.75,0.06-1.5,0.12-2.25,0.18c-16.57,0-33.15,0-49.93,0
		c1.01-1.84,2.56-1.47,3.92-1.45c15.26,0.16,30.52-0.37,45.78,0.25C162.85,121.62,163.43,121.39,164.01,121.29z"/>
	<path class="st3" d="M253.48,143.31c-2.41-1.37-5.13-1.33-7.71-1.32c-3.01,0.01-5.78-0.74-8.59-1.55c0.54-1.17,1.07-2.33,1.61-3.5
		c3.1,0.87,6.27,0.64,9.43,0.71c2.43,0.05,4.88,0.13,6.97,1.64C254.62,140.63,254.05,141.97,253.48,143.31z"/>
	<path class="st14" d="M311.27,53.29c-6.36,0.52-12.56,2.67-19.05,1.81c0.64-1.92,1.81-3.26,3.94-3.51
		c5.53-0.67,11.07-1.34,16.78-2.03C312.69,51.24,312.18,52.35,311.27,53.29z"/>
	<path class="st13" d="M135.38,153.32c-1.08-0.11-2.06-0.48-2.85-1.13c-0.25-1.1,0.65-1.39,1.19-1.53
		c6.36-1.63,10.82-5.98,15.29-10.38c1.58-1.56,3.04-3.68,5.85-3c-0.02,0.37-0.04,0.74-0.06,1.11c-2.49,1.19-3.6,3.61-4.98,5.72
		c-2.6,3.98-6.86,4.9-10.92,6.24C137.33,150.87,135.69,151.31,135.38,153.32z"/>
	<path class="st10" d="M255.19,139.29c-2.1-1.51-4.55-1.59-6.97-1.64c-3.16-0.07-6.33,0.16-9.43-0.71c0.73-2.38,2.15-3.96,4.81-4.05
		c0.23,1,0.96,1.25,1.86,1.19c4.23-0.27,8.41,0.29,12.59,0.75C257.6,136.64,256.77,138.21,255.19,139.29z"/>
	<path class="st18" d="M178.11,121.31c-4.01-2.21-8.69-0.4-12.78-2.1c0.48-1.19,0.97-2.39,1.45-3.58c4.73-0.77,9.46-0.08,14.19,0.01
		C180.01,117.54,179.06,119.43,178.11,121.31z"/>
	<path class="st16" d="M214.45,107.86c3.16,0,6.32-0.03,9.49,0.02c1.14,0.02,2.39-0.39,3.35,0.62c-4.82,3.04-10.4,2.22-15.63,2.72
		c-3.36,0.32-6.83,1.16-10.33,0.36C205.51,109.54,210.27,109.73,214.45,107.86z"/>
	<path class="st2" d="M520.21,52.57c-3.08,1.77-6.58,0.85-9.82,1.2c-9.31,0.99-18.71,1.39-28.44,0.75
		c5.71-1.85,11.38-1.91,16.91-2.73c0.86,1.23,2.16,0.7,3.26,0.71C508.15,52.56,514.18,52.55,520.21,52.57z"/>
	<path class="st19" d="M258.05,134.83c-4.19-0.46-8.37-1.01-12.59-0.75c-0.9,0.06-1.63-0.19-1.86-1.19
		c1.41-0.79,2.82-1.58,4.23-2.37c3.04,1.11,6.2,0.6,9.32,0.75c2.41,0.12,4.9-0.56,7.19,0.74
		C262.52,133.55,260.14,133.87,258.05,134.83z"/>
	<path class="st1" d="M133.86,112.73c4.24-1.89,8.49-3.74,12.69-5.71c1.06-0.5,1.98-0.96,2.81,0.12c0.89,1.16-0.53,1.54-0.91,2.28
		C145.02,116.1,138.97,112.71,133.86,112.73z"/>
	<path class="st2" d="M315.3,157.41c0.33-1.38,0.65-2.77,0.98-4.15c2.93,1.07,5.98,0.56,8.98,0.71c0.11,1.75,0.23,3.51,0.36,5.44
		c-3.33,0.94-6.7-0.97-10.16-0.59C315.41,158.34,315.36,157.87,315.3,157.41z"/>
	<path class="st21" d="M520.21,52.57c-6.03-0.02-12.06-0.01-18.08-0.08c-1.1-0.01-2.4,0.52-3.26-0.71c0.38-1.68,1.75-1.26,2.86-1.3
		c9.03-0.31,18.02,0.22,26.93,2.09C525.84,52.57,523.02,52.57,520.21,52.57z"/>
	<path class="st14" d="M260.63,41.24c-5.77,0.02-11.34,1.69-17.07,2.08c0.21-1.66,0.98-2.74,2.76-3.04
		c5.11-0.85,10.21-1.77,15.59-2.71C261.4,39.04,261.02,40.14,260.63,41.24z"/>
	<path class="st1" d="M29.55,102.18c0.42,2.14,2.65,3.19,3.26,5.64c-3.66-0.22-7.69,1.44-9.99-3.02c-0.5-0.98-1.89-2.08-0.35-3.36
		C24.83,101.74,27.3,100.88,29.55,102.18z"/>
	<path class="st6" d="M28.36,92.99c2.35,0.97,4.71-0.43,7.06,0c0.08,1.24-1.2,1.82-1.41,2.92c-1.42,0.8-2,2.34-3.04,3.47
		c-2.53,0-5.06,0-7.59,0C24.41,96.76,26.69,95.11,28.36,92.99z"/>
	<path class="st12" d="M325.26,153.96c-3-0.15-6.05,0.37-8.98-0.71c-0.33-1.08-0.03-2.02,0.66-2.88c1.64-0.32,3.27,0.71,4.91,0.01
		c0.24,0.49,0.48,0.49,0.71,0c1.48-0.36,1.12-2.12,2.14-2.83c1.29,0.82,2.73,0.74,4.16,0.69
		C328.15,150.46,326.85,152.3,325.26,153.96z"/>
	<path class="st19" d="M154.8,138.39c0.02-0.37,0.04-0.74,0.06-1.11c1.93-2.82,5.29-3.69,7.84-5.68c1.37-1.07,3.12-1.66,4.25-3.09
		c0.22-0.03,0.43-0.06,0.65-0.08c1.69,0.01,3.37,0.03,5.06,0.04c-1.57,2.48-4.35,3.13-6.76,4.23c-2.79,1.28-5.61,2.42-7.78,4.7
		C157.23,138.32,155.98,138.32,154.8,138.39z"/>
	<path class="st20" d="M65.28,122.01c-15.95-0.49-31.91,1.16-47.86-0.68c3.29,0,6.58,0,9.87,0c11.46,0,22.92-0.02,34.37,0.04
		c1.18,0.01,2.61-0.69,3.57,0.69C65.23,122.06,65.28,122.01,65.28,122.01z"/>
	<path class="st9" d="M264.34,132c-2.29-1.29-4.79-0.62-7.19-0.74c-3.12-0.15-6.28,0.36-9.32-0.75c0.71-0.71,1.42-1.42,2.13-2.13
		c3.6,1.5,7.38,0.43,11.06,0.73c1.84,0.15,3.75-0.32,5.45,0.77C265.76,130.59,265.05,131.3,264.34,132z"/>
	<path class="st16" d="M294.88,88.01c-4.07,0.62-8.16,0.91-12.28,0.72c-1.14-0.05-2.38,0.39-3.38-0.54c0.48-1.32,2-0.81,2.79-1.6
		c4.59-0.24,9.21,0.46,13.77-0.66c0.85-0.21,1.91-0.34,2.6,0.61C297.49,87.69,296.14,87.75,294.88,88.01z"/>
	<path class="st22" d="M87.94,151.09c-1.43,5.92-4.73,10.88-8.18,15.76c2.4-5.42,2.54-12.02,8.21-15.73L87.94,151.09z"/>
	<path class="st22" d="M73.96,127.83c1.4-4.85,1.9-10.01,4.91-14.31c1.52,0.29,1.51,1.6,1.16,2.47c-1.51,3.76-3.19,7.46-4.88,11.15
		C74.99,127.48,74.37,127.6,73.96,127.83z"/>
	<path class="st22" d="M34,95.9c0.21-1.1,1.49-1.68,1.41-2.92c3.7-2.65,6.11-6.7,10.01-9.13C42.66,88.85,39.25,93.24,34,95.9z"/>
	<path class="st21" d="M634.82,131.18c-1.76,4-3.52,7.99-5.34,12.11C628.68,139.2,630.25,134.94,634.82,131.18z"/>
	<path class="st21" d="M69.48,83.77c-3.82,2.76-6.23,7.16-10.68,9.2l0.01,0.01c2.44-4.35,5.25-8.27,10.65-9.23L69.48,83.77z"/>
	<path class="st16" d="M521.67,40.06c-5.63,1.7-11.37,2.24-17.22,1.55C510.18,40.9,515.86,39.72,521.67,40.06z"/>
	<path class="st10" d="M475.44,79.5c1.27,0.02,2.53,0.03,3.8,0.05c-0.68,1.68-1.38,3.34-2.97,4.41c-0.78-1.57-3.24,0.65-3.71-1.63
		C473.27,81.14,474.18,80.15,475.44,79.5z"/>
	<path class="st22" d="M186.05,158.18c-0.68,3.27-2.76,5.8-4.46,8.64c-0.89-4.26,0.52-6.91,4.48-8.61L186.05,158.18z"/>
	<path class="st17" d="M235.79,142.59c0.75,0.26,1.49,0.52,2.24,0.77c-0.97,1.02-1.84,2.17-2.94,3.02
		c-0.93,0.72-2.12,0.83-3.19,0.02c0.78-0.91-0.42-2.78,1.55-3.14C234.25,143.12,235.01,142.82,235.79,142.59z"/>
	<path class="st3" d="M23.37,99.37c2.53,0,5.06,0,7.59,0c-0.47,0.94-0.94,1.87-1.41,2.81c-2.25-1.29-4.72-0.44-7.07-0.73
		C22.77,100.76,23.07,100.06,23.37,99.37z"/>
	<path class="st3" d="M328.85,148.25c-1.43,0.05-2.87,0.13-4.16-0.69c1.82-1.82,3.47-3.88,6.28-4.27
		C330.98,145.25,329.68,146.65,328.85,148.25z"/>
	<path class="st11" d="M545.86,90.88c-1.43-3.47-0.64-5.25,2.85-6.38C548.48,86.94,547.23,88.93,545.86,90.88z"/>
	<path class="st21" d="M315.3,157.41c0.05,0.47,0.1,0.93,0.16,1.4c-0.14,2.92-0.91,5.7-1.89,8.46
		C313.73,163.91,313.25,160.46,315.3,157.41z"/>
	<path class="st17" d="M172.65,128.47c-1.69-0.01-3.37-0.03-5.06-0.04c1.95-2.17,4.02-3.41,6.6-0.88
		C173.92,128.27,173.32,128.42,172.65,128.47z"/>
	<path class="st21" d="M473.89,41.39c-3.17,2.01-6.54,0.74-9.82,0.98C467.34,42.01,470.66,42.11,473.89,41.39z"/>
	<path class="st11" d="M134.92,25.76c-1.06,1.35-0.6,3.38-2.65,3.13c-0.87-0.11-1.37-1.39-1.18-1.9
		C131.66,25.49,133.08,25.57,134.92,25.76z"/>
	<path class="st21" d="M392.58,147.85c-0.72-3.18,0.49-4.49,2.22-6.29C394.82,144.16,393.38,145.42,392.58,147.85z"/>
	<path class="st21" d="M124.9,27.03c-1.95,2.2-4.54,1-6.84,1.31c2.19-0.99,4.47-1.47,6.87-1.28L124.9,27.03z"/>
	<path class="st21" d="M46,102.89c0.46-1.94,2-2.04,3.57-2.11l-0.01-0.01c-0.72,1.47-2.07,1.91-3.54,2.14
		C46.01,102.9,46,102.89,46,102.89z"/>
	<path class="st21" d="M266.4,58.24c-0.3,0.98-0.6,1.96-0.9,2.94C265.05,59.92,264.44,58.6,266.4,58.24L266.4,58.24z"/>
	<path class="st22" d="M73.2,131.35c-0.15-0.84-0.44-1.71,0.61-2.22C74.83,130.2,74.4,130.88,73.2,131.35z"/>
	<path class="st21" d="M267.8,54.69c-0.09,0.54-0.18,1.09-0.28,1.63c-0.1-0.06-0.25-0.11-0.28-0.19c-0.19-0.62,0.01-1.1,0.59-1.41
		C267.84,54.71,267.8,54.69,267.8,54.69z"/>
	<path class="st21" d="M267.84,54.71c0.08-0.52,0.16-1.04,0.25-1.57c0.09,0.06,0.24,0.1,0.27,0.18c0.2,0.6,0.02,1.06-0.55,1.36
		C267.8,54.69,267.84,54.71,267.84,54.71z"/>
	<path class="st21" d="M124.93,27.06c0.25-0.18,0.5-0.36,0.76-0.53c0.17,0.85-0.52,0.34-0.79,0.5
		C124.9,27.03,124.93,27.06,124.93,27.06z"/>
	<path class="st21" d="M43.86,104.3c-0.25,0.18-0.49,0.36-0.74,0.54c-0.06-0.09-0.12-0.18-0.18-0.27c0.31-0.08,0.62-0.16,0.94-0.24
		C43.89,104.33,43.86,104.3,43.86,104.3z"/>
	<path class="st21" d="M45.32,103.62c-0.3,0.63-0.87,0.66-1.46,0.68c0,0,0.02,0.03,0.02,0.03c0.25-0.63,0.77-0.78,1.38-0.75
		L45.32,103.62z"/>
	<path class="st22" d="M87.97,151.11c0.08-0.31,0.16-0.62,0.24-0.93c0.09,0.06,0.18,0.12,0.27,0.18c-0.18,0.24-0.36,0.49-0.54,0.73
		C87.94,151.09,87.97,151.11,87.97,151.11z"/>
	<path class="st21" d="M634.91,128.94c0.07,0.01,0.19-0.01,0.21,0.03c0.05,0.07,0.09,0.2,0.05,0.27c-0.13,0.3-0.27,0.28-0.35-0.03
		C634.81,129.12,634.88,129.02,634.91,128.94z"/>
	<path class="st14" d="M403.63,70.33c-0.01-0.45-0.03-0.9-0.04-1.35C404.75,69.4,404.43,69.86,403.63,70.33z"/>
	<path class="st21" d="M55.94,95.6c-0.08-0.06-0.15-0.12-0.23-0.18c0.16,0.02,0.33,0.03,0.49,0.05
		C56.12,95.51,56.03,95.55,55.94,95.6z"/>
	<path class="st21" d="M58.09,93.68c-0.11,0.1-0.22,0.2-0.33,0.31c0.02-0.07,0.02-0.17,0.07-0.2c0.08-0.05,0.18-0.06,0.27-0.09
		C58.1,93.69,58.09,93.68,58.09,93.68z"/>
	<path class="st21" d="M58.8,92.97c-0.24,0.24-0.48,0.47-0.71,0.71c0,0,0.01,0.01,0.01,0.01c0.24-0.24,0.47-0.47,0.71-0.71
		C58.81,92.98,58.8,92.97,58.8,92.97z"/>
	<path class="st21" d="M266.39,58.24c0.1-0.12,0.2-0.23,0.3-0.35c-0.01,0.07,0,0.17-0.04,0.21
		C266.59,58.17,266.49,58.2,266.39,58.24C266.4,58.24,266.39,58.24,266.39,58.24z"/>
	<path class="st21" d="M69.46,83.74c0.11-0.11,0.22-0.22,0.33-0.34c-0.01,0.07,0.01,0.18-0.04,0.22c-0.07,0.07-0.18,0.1-0.27,0.14
		C69.48,83.77,69.46,83.74,69.46,83.74z"/>
	<path class="st22" d="M186.07,158.2c0.09-0.11,0.19-0.23,0.28-0.34c-0.01,0.07,0,0.16-0.04,0.2c-0.07,0.06-0.17,0.08-0.26,0.12
		C186.05,158.18,186.07,158.2,186.07,158.2z"/>
	<path class="st21" d="M45.27,103.57c0.24-0.23,0.49-0.46,0.73-0.68c0,0,0.01,0.01,0.01,0.01c-0.23,0.24-0.46,0.48-0.69,0.72
		C45.32,103.62,45.27,103.57,45.27,103.57z"/>
	<path class="st21" d="M49.57,100.78c0.1-0.11,0.2-0.22,0.29-0.33c-0.01,0.07,0,0.16-0.04,0.2c-0.07,0.06-0.17,0.08-0.26,0.12
		C49.56,100.77,49.57,100.78,49.57,100.78z"/>
	<path class="st3" d="M322.56,150.39c-0.24,0.49-0.47,0.5-0.71,0C322.08,150.39,322.32,150.39,322.56,150.39z"/>
</g>
</svg>
